<?xml version="1.0" standalone="no"?><!DOCTYPE svg PUBLIC "-//W3C//DTD SVG 1.1//EN" "http://www.w3.org/Graphics/SVG/1.1/DTD/svg11.dtd"><svg t="1537426422291" class="icon" style="" viewBox="0 0 1024 1024" version="1.1" xmlns="http://www.w3.org/2000/svg" p-id="9208" xmlns:xlink="http://www.w3.org/1999/xlink" width="200" height="200"><defs><style type="text/css"></style></defs><path d="M199.20896 973.94688c-2.56-4.56704-6.08256-44.40064-3.74784-42.74176 0.69632 0.512 3.50208 5.46816 6.22592 10.99776 2.70336 5.5296 5.77536 9.97376 6.79936 9.87136 2.51904-0.22528 1.536-24.49408-2.048-50.25792-6.77888-49.11104-24.08448-90.8288-48.29184-116.5312-4.096-4.34176-7.04512-8.192-6.53312-8.58112 1.90464-1.37216 27.17696 17.26464 37.72416 27.83232 6.00064 6.00064 15.0528 16.896 20.09088 24.18688 6.71744 9.70752 9.5232 12.65664 10.4448 10.93632 1.59744-3.01056-4.3008-202.81344-7.70048-260.11648-1.51552-25.7024 1.29024-20.95104 12.4928 21.1968 21.79072 82.04288 38.05184 162.24256 47.96416 236.544 1.76128 13.04576 3.54304 24.00256 3.9936 24.3712 0.45056 0.32768 1.88416 0.02048 3.21536-0.69632 18.18624-9.89184 31.21152-13.66016 52.224-15.07328 14.88896-0.98304 19.3536 1.26976 7.168 3.64544-23.552 4.54656-40.7552 20.74624-48.00512 45.07648-6.4512 21.72928-6.69696 55.43936-0.49152 70.32832 3.11296 7.49568 0.75776 8.72448-21.85216 11.4688-14.66368 1.80224-20.00896 1.96608-24.61696 0.75776-7.29088-1.88416-22.89664-2.00704-24.4736-0.16384-0.63488 0.73728-4.97664 1.35168-9.6256 1.35168-7.7824 0-8.66304-0.34816-10.9568-4.4032z m40.42752-66.21184c3.11296-4.1984 1.47456-8.3968-4.17792-10.69056-4.608-1.8432-5.38624-1.80224-8.94976 0.512-4.3008 2.80576-5.16096 8.8064-1.6384 11.34592 3.6864 2.6624 12.43136 1.96608 14.7456-1.16736z m25.55904 1.76128a15.62624 15.62624 0 0 0 4.38272-4.15744c4.93568-6.7584-7.20896-12.73856-15.2576-7.49568-8.31488 5.4272 1.6384 16.0768 10.87488 11.65312z m46.85824 63.36512c-0.67584-0.79872 2.39616-7.92576 6.84032-15.872 4.42368-7.92576 8.41728-13.6192 8.86784-12.65664 1.4336 3.11296-4.11648 26.2144-6.7584 28.09856-3.072 2.21184-7.24992 2.39616-8.94976 0.4096zM167.936 964.44416c-5.9392-7.02464-4.52608-8.88832 2.8672-3.72736 3.60448 2.51904 6.57408 5.38624 6.57408 6.3488 0 3.3792-5.71392 1.78176-9.4208-2.62144z m177.13152-2.9696c0-1.08544 2.08896-3.6864 4.64896-5.77536 5.12-4.17792 6.38976-2.31424 2.92864 4.23936-1.9456 3.6864-7.5776 4.83328-7.5776 1.536z m165.1712-16.93696c-4.97664-0.512-9.8304-1.80224-10.79296-2.88768-2.2528-2.56-2.33472-62.32064-0.08192-62.32064 0.9216 0 2.70336 3.05152 3.95264 6.77888 2.60096 7.7824 4.66944 8.6016 6.3488 2.53952 1.92512-6.90176 1.3312-71.10656-0.79872-88.00256-9.19552-72.704-38.1952-125.41952-88.92416-161.5872-22.24128-15.85152-54.33344-29.40928-82.88256-35.04128-15.64672-3.072-10.69056-4.58752 12.24704-3.72736 48.41472 1.82272 85.34016 14.45888 119.74656 40.98048a226.22208 226.22208 0 0 1 47.5136 51.24096c9.27744 13.96736 13.1072 17.48992 13.1072 11.96032 0-1.4336 1.29024-18.06336 2.84672-36.9664 13.90592-169.1648 49.07008-309.248 102.07232-406.7328 38.0928-70.08256 104.61184-139.61216 161.4848-168.83712 28.61056-14.70464 51.99872-20.23424 82.3296-19.49696 19.10784 0.47104 20.6848 0.73728 36.2496 6.28736a139.71456 139.71456 0 0 1 27.91424 13.55776c12.53376 8.33536 26.80832 20.56192 25.2928 21.66784-0.53248 0.36864-7.02464-3.3792-14.4384-8.33536-54.41536-36.27008-103.66976-31.1296-145.8176 15.19616-22.69184 24.9856-54.29248 72.2944-74.42432 111.47264-57.91744 112.70144-92.99968 234.78272-108.35968 377.09824-3.33824 30.90432-5.77536 77.0048-3.9936 75.83744 0.65536-0.45056 5.44768-10.6496 10.60864-22.69184 32.70656-76.24704 73.27744-131.64544 118.5792-161.95584 13.76256-9.19552 33.01376-18.51392 35.1232-16.9984 0.45056 0.32768-3.52256 4.5056-8.84736 9.29792-40.07936 35.92192-66.51904 77.0048-86.67136 134.59456-19.21024 54.8864-27.97568 114.44224-28.01664 190.464-0.04096 35.65568 3.85024 89.8048 7.49568 104.46848 2.56 10.3424 1.6384 11.18208-11.9808 11.18208-11.264 0-47.22688 2.82624-69.95968 5.5296-8.47872 1.024-16.73216 0.8192-32.95232-0.73728-11.8784-1.14688-23.12192-2.43712-24.94464-2.8672-3.3792-0.75776-3.6864-0.28672-4.096 6.18496-0.2048 3.80928-2.00704 4.15744-14.90944 2.84672z m51.34336-137.728c6.02112-2.2528 7.68-4.5056 7.68-10.58816 0-12.9024-26.80832-14.45888-31.21152-1.80224-1.51552 4.32128 2.6624 10.4448 8.6016 12.61568 6.08256 2.21184 8.45824 2.17088 14.9504-0.22528z m48.51712-1.06496c5.67296-4.54656 6.51264-7.45472 3.56352-12.51328-8.192-14.15168-35.9424-6.28736-29.24544 8.27392 2.47808 5.44768 6.12352 7.168 15.11424 7.24992 4.64896 0 7.92576-0.9216 10.56768-3.01056z m61.66528 136.82688c-0.55296-1.024 1.80224-5.48864 5.24288-9.91232 18.00192-23.2448 24.9856-31.62112 26.29632-31.62112 0.8192 0 1.14688 0.75776 0.73728 1.67936l-8.66304 19.74272c-4.34176 9.9328-9.1136 18.92352-10.62912 20.00896-3.46112 2.49856-11.6736 2.56-12.98432 0.1024z m50.09408-12.20608c0-2.47808 17.46944-13.98784 18.35008-12.0832 0.36864 0.8192-1.14688 4.28032-3.39968 7.70048-3.44064 5.30432-4.87424 6.2464-9.50272 6.2464-3.35872 0-5.44768-0.7168-5.44768-1.86368z m-267.0592-2.53952c-3.62496-3.25632-10.09664-13.43488-9.46176-14.848 0.36864-0.77824 5.07904 2.048 10.48576 6.32832 5.40672 4.23936 9.35936 8.2944 8.76544 8.97024-1.536 1.80224-7.59808 1.51552-9.78944-0.45056z" fill="#9BB92F" p-id="9209"></path></svg>