<?xml version="1.0" standalone="no"?><!DOCTYPE svg PUBLIC "-//W3C//DTD SVG 1.1//EN" "http://www.w3.org/Graphics/SVG/1.1/DTD/svg11.dtd"><svg t="1537426479035" class="icon" style="" viewBox="0 0 1024 1024" version="1.1" xmlns="http://www.w3.org/2000/svg" p-id="10778" xmlns:xlink="http://www.w3.org/1999/xlink" width="200" height="200"><defs><style type="text/css"></style></defs><path d="M989.314 255.47c-9.1 155.412-121.748 289.344-244.362 412.724-6.838-150.46-39.566-246.374-90.666-381.222C606.046 151.066 747.074 5.352 863.098 1c69.508 35.402 129.208 128.354 126.216 254.47zM557.17 560.916c-17.406 31.144-40.268 64.946-70.05 102.004-62.624 78.926-125.744 208.344-106.348 360.08 258.66-28.534 339.426-222.674 346.512-329.348-48.744-73.54-137.19-118.828-170.114-132.736zM35.594 95.32c-9.192 118.718 41.604 295.234 247.454 351.424 86.68 25.666 147.392 41.478 213.154 65.358 96.13 34.92 171.59 79.508 231.36 156.466-11.088-132.41-65.614-284.122-152.7-402.484C450.644 97.262 235.5 16.214 35.594 95.32z" fill="" p-id="10779"></path></svg>