<?xml version="1.0" encoding="UTF-8"?>
<svg width="1024px" height="1024px" viewBox="0 0 1024 1024" version="1.1" xmlns="http://www.w3.org/2000/svg" xmlns:xlink="http://www.w3.org/1999/xlink">
    <!-- Generator: Sketch 44.1 (41455) - http://www.bohemiancoding.com/sketch -->
    <title>translate</title>
    <desc>Created with Sketch.</desc>
    <defs></defs>
    <g id="Page-1" stroke="none" stroke-width="1" fill="none" fill-rule="evenodd">
        <g id="translate" fill-rule="nonzero" fill="#000000">
            <path d="M552.250172,668.661609 L434.07701,540.24993 L435.472756,538.715129 C514.292866,442.385992 573.181467,328.409268 608.080012,204.640125 L744.397872,204.640125 L744.397872,102.320063 L418.723804,102.320063 L418.723804,0 L325.674069,0 L325.674069,102.320063 L0,102.320063 L0,204.640125 L519.682764,204.640125 C488.511104,302.867385 439.194745,396.490242 372.198936,478.346293 C328.93081,425.65146 293.106663,367.840625 264.726493,306.960187 L171.676759,306.960187 C205.639913,390.351039 252.164779,469.137486 310.320863,540.24993 L73.5092896,797.073287 L139.574601,869.720532 L372.198936,613.920375 L516.891272,773.028073 L552.250172,668.661609 L552.250172,668.661609 Z M814.185173,409.280251 L721.135439,409.280251 L511.773537,1023.20063 L604.823271,1023.20063 L656.931123,869.720532 L877.924242,869.720532 L930.497341,1023.20063 L1023.54707,1023.20063 L814.185173,409.280251 L814.185173,409.280251 Z M692.290022,767.400468 L767.660307,545.877534 L843.030591,767.400468 L692.290022,767.400468 L692.290022,767.400468 Z" id="Shape"></path>
        </g>
    </g>
</svg>