<?xml version="1.0" encoding="UTF-8"?>
<svg width="1024px" height="1024px" viewBox="0 0 1024 1024" version="1.1" xmlns="http://www.w3.org/2000/svg" xmlns:xlink="http://www.w3.org/1999/xlink">
    <!-- Generator: Sketch 44.1 (41455) - http://www.bohemiancoding.com/sketch -->
    <title>translate_last</title>
    <desc>Created with Sketch.</desc>
    <defs></defs>
    <g id="Page-1" stroke="none" stroke-width="1" fill="none" fill-rule="evenodd">
        <g id="translate_last" fill-rule="nonzero" fill="#666666">
            <path d="M580.758501,476.550683 L570.967763,476.550683 L608.639946,695.951524 C633.620431,686.560663 656.183449,672.790207 676.208128,654.640157 C655.78355,628.524096 638.928564,599.569532 626.126285,568.606391 L665.853315,563.258232 C676.812495,586.798553 689.343029,607.475293 703.444915,625.372674 C732.77684,588.14612 755.339858,538.623013 771.133971,476.550683 L580.758501,476.550683 L580.758501,476.550683 Z M730.641411,654.640157 C753.244721,675.14845 779.031028,690.013805 807.960041,699.404666 L826.091038,705.300274 L815.534769,745.727301 L797.403771,739.831693 C762.578102,728.691584 730.50784,709.718441 703.444915,684.244531 C678.048866,708.139849 648.218921,726.31608 615.811763,737.641896 L641.195159,885.326877 L490.063225,885.326877 L469.716217,981.888514 L943.378444,981.888514 C965.630606,981.888514 983.669549,963.03456 983.669549,939.777028 L983.669549,223.881767 C983.669549,200.624236 965.630606,181.770281 943.378444,181.770281 L520.321844,181.770281 L551.829488,365.207914 L550.540173,364.702576 L554.206663,384.831866 L554.770739,382.263066 L563.715364,434.439197 L661.340711,434.439197 L661.340711,392.327711 L736.886532,392.327711 L736.886532,434.439197 L862.796234,434.439197 L862.796234,476.550683 L810.296925,476.550683 C792.770294,550.498452 766.218456,610.001982 730.641411,654.640157 Z M448.845425,885.116319 L81.3099675,885.116319 C36.8056421,885.116319 0.727758079,847.40841 0.727758079,800.893347 L0.727758079,84.9980864 C0.727758079,38.4830235 36.8056421,0.775114538 81.3099675,0.775114538 L484.221015,0.775114538 L509.523828,139.658795 L943.378444,139.658795 C987.882769,139.658795 1023.96065,177.366704 1023.96065,223.881767 L1023.96065,939.777028 C1023.96065,986.292091 987.882769,1024 943.378444,1024 L419.594083,1024 L448.845425,885.116319 Z M258.429664,560.773655 L258.429664,516.556594 L178.854732,516.556594 L178.854732,451.368014 L252.909782,451.368014 L252.909782,407.487846 L178.854732,407.487846 L178.854732,351.984907 L258.429664,351.984907 L258.429664,308.104739 L132.47967,308.104739 L132.47967,560.773655 L258.429664,560.773655 Z M453.075991,560.773655 L453.075991,434.776089 C453.075991,411.86744 448.039603,394.349062 437.966826,382.136731 C427.89405,370.008623 413.147506,363.944569 393.686902,363.944569 C382.324811,363.944569 372.171452,366.302813 363.267118,371.103522 C354.397126,375.821177 347.074508,383.196061 342.235162,392.285599 L339.696822,392.285599 L333.572574,367.566157 L298.720768,367.566157 L298.720768,560.773655 L344.330299,560.773655 L344.330299,469.854956 C344.330299,447.072643 347.150676,430.691275 352.872013,420.879298 C358.512768,411.025211 367.779722,406.098167 380.552002,406.098167 C389.899538,406.098167 396.749026,409.59342 401.019883,416.541815 C405.331032,423.532322 407.46646,433.97597 407.46646,447.914872 L407.46646,560.773655 L453.075991,560.773655 Z" id="Shape"></path>
        </g>
    </g>
</svg>